<svg version="1.1" xmlns="http://www.w3.org/2000/svg" xmlns:xlink="http://www.w3.org/1999/xlink" width="30px" height="34px" viewBox="0,0,225.875,256"><g fill="#b8f55c" fill-rule="nonzero" stroke="none" stroke-width="1" stroke-linecap="butt" stroke-linejoin="miter" stroke-miterlimit="10" stroke-dasharray="" stroke-dashoffset="0" font-family="none" font-weight="none" font-size="none" text-anchor="none" style="mix-blend-mode: normal"><g transform="translate(8.06985,0) scale(7.52941,7.52941)"><g id="surface1"><path d="M16.07031,5.3125c0,-1.17578 -0.95703,-2.125 -2.14062,-2.125c-1.1875,0 -2.14453,0.94922 -2.14453,2.125v9.5625h-9.64062c-1.1875,0 -2.14453,0.94922 -2.14453,2.125c0,1.17578 0.95703,2.125 2.14453,2.125h9.64063v9.5625c0,1.17578 0.95703,2.125 2.14453,2.125c1.18359,0 2.14062,-0.94922 2.14062,-2.125v-9.5625h9.64453c1.18359,0 2.14063,-0.94922 2.14063,-2.125c0,-1.17578 -0.95703,-2.125 -2.14062,-2.125h-9.64453zM16.07031,5.3125"></path></g></g></g></svg>